<?xml version="1.0" encoding="UTF-8"?>
<svg xmlns="http://www.w3.org/2000/svg" xmlns:xlink="http://www.w3.org/1999/xlink" viewBox="0 0 433.69 433.69" width="434" height="434">
  <defs>
    <style>
      .cls-1 {
        fill: none;
      }

      .cls-2 {
        fill: url(#linear-gradient);
      }

      .cls-3 {
        fill: #231f20;
      }

      .cls-4 {
        fill: #301aed;
      }

      .cls-5 {
        stroke: #231f20;
        stroke-width: 1.27px;
        fill: url(#linear-gradient-2);
      }
    </style>
    <linearGradient id="linear-gradient" x1="-736.61" y1="535.63" x2="-735.61" y2="535.63" gradientTransform="matrix(33.87, 0.42, 0.42, -33.87, 24756.79, 18655.02)" gradientUnits="userSpaceOnUse">
      <stop offset="0" stop-color="#87a7d0" />
      <stop offset="0.22" stop-color="#fff" />
      <stop offset="0.28" stop-color="#a4bbdb" />
      <stop offset="0.52" stop-color="#fff" />
      <stop offset="0.63" stop-color="#c2b8b1" />
      <stop offset="0.86" stop-color="#808285" />
      <stop offset="1" stop-color="#cfe5f7" />
    </linearGradient>
    <linearGradient id="linear-gradient-2" x1="-78.66" y1="286.28" x2="-78.66" y2="271" gradientTransform="matrix(1.27, 0, 0, -1.27, 182.62, 571.84)" gradientUnits="userSpaceOnUse">
      <stop offset="0" stop-color="#5ea4c7" />
      <stop offset="0.31" stop-color="#edf2f8" />
      <stop offset="1" stop-color="#66a8cc" />
    </linearGradient>
  </defs>
  <g id="Layer_2" data-name="Layer 2">
    <g id="svg1">
      <g>
        <circle class="cls-1" cx="216.85" cy="216.85" r="216.85" />
        <g>
          <g id="g27">
            <path id="path2" class="cls-2" d="M33.06,208.88l32.8.4,0-3.35-32.8-.4Z" />
            <path id="path3" class="cls-3" d="M32.57,205l0,4.42,1-3.34,31.87.39,0,2.28-32.27-.4.53.54-1.07.53h.53l33.34.41,0-4.41Z" />
            <path id="path15" class="cls-4" d="M48,132.85l-.72,58.23,4,0L52,132.9Z" />
            <path id="path16" class="cls-4" d="M56.17,177.79a1.31,1.31,0,0,0-.81.63,52.67,52.67,0,0,0-7.07,25.83,1.34,1.34,0,0,0,1.32,1.36h0A1.33,1.33,0,0,0,51,204.28a50.07,50.07,0,0,1,6.72-24.53,1.33,1.33,0,0,0-.49-1.82h0a1.36,1.36,0,0,0-1-.13Z" />
            <path id="path17" class="cls-4" d="M43.74,177.64a1.34,1.34,0,0,0-1.56,1.92h0a50.08,50.08,0,0,1,6.11,24.69,1.34,1.34,0,0,0,1.32,1.36h0A1.34,1.34,0,0,0,51,204.28a52.76,52.76,0,0,0-6.43-26,1.33,1.33,0,0,0-.79-.64Z" />
          </g>
          <path id="path5" class="cls-5" d="M147.37,209.58H24.57a6.34,6.34,0,0,0-6.55,6.3v3.28a6.55,6.55,0,0,0,6.55,6.55h122.8" />
        </g>
      </g>
    </g>
  </g>
</svg>
